# xmcd CD database file
#
# Track frame offsets:
#	150
#	16030
#	39032
#	69693
#	94874
#	119548
#	139651
#	159851
#	184131
#	202306
#
# Disc length: 3012 seconds
#
# Revision: 0
# Processed by: cddbd v1.5.2PL0 Copyright (c) Steve Scherf et al.
# Submitted via: CDex 1.70beta2
#
DISCID=820bc20a
DTITLE=Grammofunch - Grammofunch
DYEAR=2008
DGENRE=Jazz
TTITLE0=Honolu
TTITLE1=Longing
TTITLE2=Mozart Mortensen
TTITLE3=It's you
TTITLE4=Quick slower
TTITLE5=The insider
TTITLE6=El midio
TTITLE7=Maybe not
TTITLE8=Against all odds
TTITLE9=Lady with the golden hair
EXTD=YEAR: 2008
EXTT0=
EXTT1=
EXTT2=
EXTT3=
EXTT4=
EXTT5=
EXTT6=
EXTT7=
EXTT8=
EXTT9=
PLAYORDER=
